<svg width="20" height="20" viewBox="0 0 20 20" fill="none" xmlns="http://www.w3.org/2000/svg">
<path d="M17.778 4.44439H13.7224L13.1336 2.93328C13.053 2.72446 12.9112 2.54485 12.7268 2.41796C12.5424 2.29107 12.324 2.22283 12.1002 2.22217H7.90022C7.67545 2.22171 7.45582 2.28943 7.27034 2.41639C7.08486 2.54335 6.94225 2.72358 6.86133 2.93328L6.278 4.44439H2.22244C1.92775 4.44439 1.64514 4.56146 1.43676 4.76983C1.22839 4.9782 1.11133 5.26082 1.11133 5.5555V16.6666C1.11133 16.9613 1.22839 17.2439 1.43676 17.4523C1.64514 17.6607 1.92775 17.7777 2.22244 17.7777H17.778C18.0727 17.7777 18.3553 17.6607 18.5637 17.4523C18.772 17.2439 18.8891 16.9613 18.8891 16.6666V5.5555C18.8891 5.26082 18.772 4.9782 18.5637 4.76983C18.3553 4.56146 18.0727 4.44439 17.778 4.44439ZM3.42799 7.57217C3.31012 7.57217 3.19707 7.52534 3.11373 7.442C3.03038 7.35865 2.98355 7.2456 2.98355 7.12773C2.98355 7.00985 3.03038 6.89681 3.11373 6.81346C3.19707 6.73011 3.31012 6.68328 3.42799 6.68328H4.76133C4.8792 6.68328 4.99225 6.73011 5.0756 6.81346C5.15895 6.89681 5.20577 7.00985 5.20577 7.12773C5.20577 7.2456 5.15895 7.35865 5.0756 7.442C4.99225 7.52534 4.8792 7.57217 4.76133 7.57217H3.42799ZM10.0002 15.5555C9.01131 15.5555 8.04461 15.2623 7.22237 14.7129C6.40012 14.1634 5.75926 13.3826 5.38082 12.4689C5.00238 11.5553 4.90336 10.55 5.09629 9.58005C5.28922 8.61015 5.76542 7.71923 6.46468 7.01997C7.16395 6.32071 8.05486 5.8445 9.02477 5.65158C9.99467 5.45865 11 5.55767 11.9136 5.93611C12.8273 6.31454 13.6082 6.95541 14.1576 7.77765C14.707 8.5999 15.0002 9.5666 15.0002 10.5555C15.0002 11.8816 14.4734 13.1534 13.5358 14.091C12.5981 15.0287 11.3263 15.5555 10.0002 15.5555Z" fill="#007CAA"/>
<path d="M6.17188 10.5889C6.17299 11.3385 6.38858 12.0721 6.79317 12.7031C7.19777 13.3341 7.77448 13.8362 8.45521 14.15L9.06076 13.1834C8.69191 13.0264 8.3614 12.7915 8.09194 12.4947C7.82247 12.1979 7.62043 11.8463 7.49969 11.4641C7.37895 11.0818 7.34238 10.678 7.39248 10.2802C7.44258 9.88252 7.57817 9.50035 7.78993 9.15999C8.00169 8.81962 8.28462 8.52913 8.61927 8.30844C8.95392 8.08776 9.33237 7.94213 9.72862 7.88154C10.1249 7.82095 10.5296 7.84684 10.9149 7.95744C11.3002 8.06804 11.657 8.26072 11.9608 8.52225L12.5663 7.54447C11.9909 7.0773 11.2949 6.78273 10.559 6.69488C9.82302 6.60704 9.07724 6.72952 8.40804 7.04813C7.73884 7.36674 7.17362 7.86844 6.77785 8.4951C6.38208 9.12177 6.17198 9.84774 6.17188 10.5889Z" fill="#007CAA"/>
</svg>
