<svg width="60" height="60" viewBox="0 0 60 60" fill="none" xmlns="http://www.w3.org/2000/svg">
<rect width="60" height="60" rx="10" fill="#007CAA"/>
<path d="M15 22.5C15 21.5054 15.3951 20.5516 16.0983 19.8483C16.8016 19.1451 17.7554 18.75 18.75 18.75H41.25C42.2446 18.75 43.1984 19.1451 43.9016 19.8483C44.6049 20.5516 45 21.5054 45 22.5V24.375H15V22.5ZM15 28.125V37.5C15 38.4946 15.3951 39.4484 16.0983 40.1516C16.8016 40.8549 17.7554 41.25 18.75 41.25H41.25C42.2446 41.25 43.1984 40.8549 43.9016 40.1516C44.6049 39.4484 45 38.4946 45 37.5V28.125H15ZM20.625 31.875H22.5C22.9973 31.875 23.4742 32.0725 23.8258 32.4242C24.1775 32.7758 24.375 33.2527 24.375 33.75V35.625C24.375 36.1223 24.1775 36.5992 23.8258 36.9508C23.4742 37.3025 22.9973 37.5 22.5 37.5H20.625C20.1277 37.5 19.6508 37.3025 19.2992 36.9508C18.9475 36.5992 18.75 36.1223 18.75 35.625V33.75C18.75 33.2527 18.9475 32.7758 19.2992 32.4242C19.6508 32.0725 20.1277 31.875 20.625 31.875Z" fill="white"/>
</svg>
