<svg width="60" height="60" viewBox="0 0 60 60" fill="none" xmlns="http://www.w3.org/2000/svg">
<rect width="60" height="60" rx="10" fill="#007CAA"/>
<path d="M42.125 31.6875L40.875 32.9375L38.3125 30.375L39.5625 29.125C39.691 28.999 39.8638 28.9285 40.0438 28.9285C40.2237 28.9285 40.3965 28.999 40.525 29.125L42.125 30.725C42.3875 30.9875 42.3875 31.425 42.125 31.6875ZM30 38.675L37.575 31.1L40.1375 33.6625L32.575 41.25H30V38.675ZM30 32.5C24.475 32.5 20 34.7375 20 37.5V40H27.5V37.6375L32.5 32.6375C31.675 32.5375 30.8375 32.5 30 32.5ZM30 20C28.6739 20 27.4021 20.5268 26.4645 21.4645C25.5268 22.4021 25 23.6739 25 25C25 26.3261 25.5268 27.5979 26.4645 28.5355C27.4021 29.4732 28.6739 30 30 30C31.3261 30 32.5979 29.4732 33.5355 28.5355C34.4732 27.5979 35 26.3261 35 25C35 23.6739 34.4732 22.4021 33.5355 21.4645C32.5979 20.5268 31.3261 20 30 20Z" fill="white"/>
</svg>
