<svg width="60" height="60" viewBox="0 0 60 60" fill="none" xmlns="http://www.w3.org/2000/svg">
<circle cx="30" cy="30" r="30" fill="#007CAA"/>
<path d="M20.5255 40.7237C20.3521 40.7234 20.1806 40.687 20.022 40.6169C19.8634 40.5467 19.7211 40.4443 19.6042 40.3162C19.4852 40.1892 19.3944 40.0384 19.3378 39.8738C19.2811 39.7093 19.2599 39.5346 19.2755 39.3612L19.5817 35.9937L33.7292 21.8512L38.1505 26.2712L24.0067 40.4124L20.6392 40.7187C20.6014 40.7222 20.5635 40.7238 20.5255 40.7237ZM39.033 25.3874L34.613 20.9674L37.2642 18.3162C37.3803 18.2 37.5182 18.1078 37.6699 18.0449C37.8217 17.982 37.9843 17.9496 38.1486 17.9496C38.3129 17.9496 38.4755 17.982 38.6273 18.0449C38.779 18.1078 38.9169 18.2 39.033 18.3162L41.6842 20.9674C41.8004 21.0835 41.8926 21.2214 41.9556 21.3731C42.0185 21.5249 42.0508 21.6875 42.0508 21.8518C42.0508 22.0161 42.0185 22.1787 41.9556 22.3305C41.8926 22.4822 41.8004 22.6201 41.6842 22.7362L39.0342 25.3862L39.033 25.3874Z" fill="white"/>
</svg>
