<svg width="60" height="60" viewBox="0 0 60 60" fill="none" xmlns="http://www.w3.org/2000/svg">
<circle cx="30" cy="30" r="30" fill="white"/>
<g clip-path="url(#clip0_125_51)">
<path d="M40.6754 42.0001C41.4068 42.0001 42 41.407 42 40.6755V19.3246C42 18.593 41.4068 18 40.6754 18H19.3246C18.5929 18 18 18.593 18 19.3246V40.6755C18 41.407 18.5929 42.0001 19.3246 42.0001H40.6754Z" fill="#395185"/>
<path d="M34.5594 42.0001V32.706H37.6792L38.1462 29.084H34.5594V26.7714C34.5594 25.7227 34.8507 25.008 36.3546 25.008L38.2726 25.0072V21.7677C37.9407 21.7235 36.8022 21.6249 35.4777 21.6249C32.7123 21.6249 30.8191 23.3128 30.8191 26.4128V29.084H27.6914V32.706H30.8191V42.0001H34.5594Z" fill="white"/>
</g>
<defs>
<clipPath id="clip0_125_51">
<rect width="24" height="24" fill="white" transform="translate(18 18)"/>
</clipPath>
</defs>
</svg>
