<svg width="20" height="20" viewBox="0 0 20 20" fill="none" xmlns="http://www.w3.org/2000/svg">
<path d="M16.7445 1.66664C16.7445 1.5193 16.6859 1.37799 16.5817 1.2738C16.4776 1.16962 16.3363 1.11108 16.1889 1.11108H3.96669C3.81935 1.11108 3.67804 1.16962 3.57385 1.2738C3.46966 1.37799 3.41113 1.5193 3.41113 1.66664V2.2222H16.7445V1.66664Z" fill="#007CAA"/>
<path d="M17.8446 3.88893C17.8446 3.74159 17.7861 3.60028 17.6819 3.49609C17.5777 3.39191 17.4364 3.33337 17.2891 3.33337H2.84462C2.69728 3.33337 2.55597 3.39191 2.45178 3.49609C2.34759 3.60028 2.28906 3.74159 2.28906 3.88893V4.44449H17.8446V3.88893Z" fill="#007CAA"/>
<path d="M17.8447 5.55554H2.15577C1.87877 5.55554 1.61311 5.66558 1.41724 5.86145C1.22137 6.05732 1.11133 6.32298 1.11133 6.59999V16.7333C1.11133 17.0103 1.22137 17.276 1.41724 17.4719C1.61311 17.6677 1.87877 17.7778 2.15577 17.7778H17.8447C18.1217 17.7778 18.3873 17.6677 18.5832 17.4719C18.7791 17.276 18.8891 17.0103 18.8891 16.7333V6.59999C18.8891 6.32298 18.7791 6.05732 18.5832 5.86145C18.3873 5.66558 18.1217 5.55554 17.8447 5.55554ZM4.75577 7.47221C5.08541 7.47221 5.40764 7.56996 5.68172 7.75309C5.9558 7.93623 6.16943 8.19653 6.29557 8.50107C6.42172 8.80561 6.45472 9.14072 6.39041 9.46403C6.32611 9.78733 6.16737 10.0843 5.93428 10.3174C5.7012 10.5505 5.40423 10.7092 5.08092 10.7735C4.75762 10.8378 4.42251 10.8048 4.11797 10.6787C3.81342 10.5525 3.55313 10.3389 3.36999 10.0648C3.18685 9.79074 3.08911 9.46851 3.08911 9.13888C3.08911 8.69685 3.2647 8.27292 3.57726 7.96036C3.88982 7.6478 4.31375 7.47221 4.75577 7.47221ZM16.6669 15.5555H3.33355L7.47799 11.4055C7.55187 11.3323 7.65172 11.2911 7.75577 11.2911C7.85983 11.2911 7.95967 11.3323 8.03355 11.4055L10.078 13.45L12.8947 10.5555C12.9685 10.4823 13.0684 10.4411 13.1724 10.4411C13.2765 10.4411 13.3763 10.4823 13.4502 10.5555L16.6669 13.7722V15.5555Z" fill="#007CAA"/>
</svg>
