<svg width="60" height="60" viewBox="0 0 60 60" fill="none" xmlns="http://www.w3.org/2000/svg">
<circle cx="30" cy="30" r="30" fill="white"/>
<path d="M39.8055 28.0415H39V28H30V32H35.6515C34.827 34.3285 32.6115 36 30 36C26.6865 36 24 33.3135 24 30C24 26.6865 26.6865 24 30 24C31.5295 24 32.921 24.577 33.9805 25.5195L36.809 22.691C35.023 21.0265 32.634 20 30 20C24.4775 20 20 24.4775 20 30C20 35.5225 24.4775 40 30 40C35.5225 40 40 35.5225 40 30C40 29.3295 39.931 28.675 39.8055 28.0415Z" fill="#FFC107"/>
<path d="M21.1528 25.3455L24.4383 27.755C25.3273 25.554 27.4803 24 29.9998 24C31.5293 24 32.9208 24.577 33.9803 25.5195L36.8088 22.691C35.0228 21.0265 32.6338 20 29.9998 20C26.1588 20 22.8278 22.1685 21.1528 25.3455Z" fill="#FF3D00"/>
<path d="M30.0002 40C32.5832 40 34.9302 39.0115 36.7047 37.404L33.6097 34.785C32.5719 35.5742 31.3039 36.001 30.0002 36C27.3992 36 25.1907 34.3415 24.3587 32.027L21.0977 34.5395C22.7527 37.778 26.1137 40 30.0002 40Z" fill="#4CAF50"/>
<path d="M39.8055 28.0415H39V28H30V32H35.6515C35.2571 33.1082 34.5467 34.0766 33.608 34.7855L33.6095 34.7845L36.7045 37.4035C36.4855 37.6025 40 35 40 30C40 29.3295 39.931 28.675 39.8055 28.0415Z" fill="#1976D2"/>
</svg>
