<svg width="30" height="30" viewBox="0 0 30 30" fill="none" xmlns="http://www.w3.org/2000/svg">
<g clip-path="url(#clip0_125_410)">
<path d="M22.5 0H7.5C6.50544 0 5.55161 0.395088 4.84835 1.09835C4.14509 1.80161 3.75 2.75544 3.75 3.75V26.25C3.75 27.2446 4.14509 28.1984 4.84835 28.9016C5.55161 29.6049 6.50544 30 7.5 30H22.5C23.4946 30 24.4484 29.6049 25.1516 28.9016C25.8549 28.1984 26.25 27.2446 26.25 26.25V3.75C26.25 2.75544 25.8549 1.80161 25.1516 1.09835C24.4484 0.395088 23.4946 0 22.5 0V0ZM9.375 7.5H20.625C20.8736 7.5 21.1121 7.59877 21.2879 7.77459C21.4637 7.9504 21.5625 8.18886 21.5625 8.4375C21.5625 8.68614 21.4637 8.9246 21.2879 9.10041C21.1121 9.27623 20.8736 9.375 20.625 9.375H9.375C9.12636 9.375 8.8879 9.27623 8.71209 9.10041C8.53627 8.9246 8.4375 8.68614 8.4375 8.4375C8.4375 8.18886 8.53627 7.9504 8.71209 7.77459C8.8879 7.59877 9.12636 7.5 9.375 7.5ZM8.4375 12.1875C8.4375 11.9389 8.53627 11.7004 8.71209 11.5246C8.8879 11.3488 9.12636 11.25 9.375 11.25H20.625C20.8736 11.25 21.1121 11.3488 21.2879 11.5246C21.4637 11.7004 21.5625 11.9389 21.5625 12.1875C21.5625 12.4361 21.4637 12.6746 21.2879 12.8504C21.1121 13.0262 20.8736 13.125 20.625 13.125H9.375C9.12636 13.125 8.8879 13.0262 8.71209 12.8504C8.53627 12.6746 8.4375 12.4361 8.4375 12.1875ZM9.375 15H20.625C20.8736 15 21.1121 15.0988 21.2879 15.2746C21.4637 15.4504 21.5625 15.6889 21.5625 15.9375C21.5625 16.1861 21.4637 16.4246 21.2879 16.6004C21.1121 16.7762 20.8736 16.875 20.625 16.875H9.375C9.12636 16.875 8.8879 16.7762 8.71209 16.6004C8.53627 16.4246 8.4375 16.1861 8.4375 15.9375C8.4375 15.6889 8.53627 15.4504 8.71209 15.2746C8.8879 15.0988 9.12636 15 9.375 15ZM9.375 18.75H15C15.2486 18.75 15.4871 18.8488 15.6629 19.0246C15.8387 19.2004 15.9375 19.4389 15.9375 19.6875C15.9375 19.9361 15.8387 20.1746 15.6629 20.3504C15.4871 20.5262 15.2486 20.625 15 20.625H9.375C9.12636 20.625 8.8879 20.5262 8.71209 20.3504C8.53627 20.1746 8.4375 19.9361 8.4375 19.6875C8.4375 19.4389 8.53627 19.2004 8.71209 19.0246C8.8879 18.8488 9.12636 18.75 9.375 18.75Z" fill="#007CAA"/>
</g>
<defs>
<clipPath id="clip0_125_410">
<rect width="30" height="30" fill="white"/>
</clipPath>
</defs>
</svg>
