<svg width="24" height="24" viewBox="0 0 24 24" fill="none" xmlns="http://www.w3.org/2000/svg">
<path d="M7.77189 2.43905L8.84789 2.09505C9.85689 1.77305 10.9349 2.29405 11.3669 3.31205L12.2269 5.34005C12.6009 6.22305 12.3929 7.26205 11.7129 7.90805L9.81789 9.70605C9.93489 10.7821 10.2969 11.8411 10.9029 12.8831C11.4784 13.8912 12.2503 14.7736 13.1729 15.4781L15.4489 14.7181C16.3109 14.4311 17.2509 14.7621 17.7789 15.5391L19.0119 17.3491C19.6269 18.2531 19.5159 19.4991 18.7529 20.2651L17.9359 21.0861C17.1219 21.9031 15.9589 22.2001 14.8839 21.8641C12.3439 21.0721 10.0109 18.7211 7.88089 14.8111C5.74789 10.8951 4.99489 7.57105 5.62289 4.84305C5.88689 3.69505 6.70389 2.78005 7.77189 2.43905Z" fill="#007CAA"/>
</svg>
