<svg width="60" height="60" viewBox="0 0 60 60" fill="none" xmlns="http://www.w3.org/2000/svg">
<rect width="60" height="60" rx="10" fill="#007CAA"/>
<path d="M37.5 25H36.25V22.5C36.25 19.05 33.45 16.25 30 16.25C26.55 16.25 23.75 19.05 23.75 22.5V25H22.5C21.125 25 20 26.125 20 27.5V40C20 41.375 21.125 42.5 22.5 42.5H37.5C38.875 42.5 40 41.375 40 40V27.5C40 26.125 38.875 25 37.5 25ZM30 36.25C28.625 36.25 27.5 35.125 27.5 33.75C27.5 32.375 28.625 31.25 30 31.25C31.375 31.25 32.5 32.375 32.5 33.75C32.5 35.125 31.375 36.25 30 36.25ZM33.875 25H26.125V22.5C26.125 20.3625 27.8625 18.625 30 18.625C32.1375 18.625 33.875 20.3625 33.875 22.5V25Z" fill="white"/>
</svg>
