<svg width="60" height="60" viewBox="0 0 60 60" fill="none" xmlns="http://www.w3.org/2000/svg">
<rect width="60" height="60" rx="10" fill="#007CAA"/>
<path fill-rule="evenodd" clip-rule="evenodd" d="M45 15.9372C44.9999 15.7985 44.9691 15.6616 44.9097 15.5363C44.8503 15.411 44.7639 15.3005 44.6567 15.2126C44.5494 15.1247 44.424 15.0617 44.2895 15.0281C44.155 14.9946 44.0147 14.9913 43.8787 15.0184L34.6875 16.8559L25.4963 15.0184C25.3749 14.9942 25.2501 14.9942 25.1287 15.0184L15.7538 16.8934C15.5413 16.9359 15.3501 17.0506 15.2127 17.2181C15.0753 17.3856 15.0001 17.5955 15 17.8122V44.0622C15.0001 44.2008 15.0309 44.3377 15.0903 44.463C15.1497 44.5883 15.2361 44.6989 15.3433 44.7868C15.4506 44.8746 15.576 44.9376 15.7105 44.9712C15.845 45.0048 15.9853 45.0081 16.1213 44.9809L25.3125 43.1434L34.5037 44.9809C34.6251 45.0051 34.7499 45.0051 34.8713 44.9809L44.2463 43.1059C44.4587 43.0635 44.6499 42.9487 44.7873 42.7812C44.9247 42.6137 44.9999 42.4038 45 42.1872V15.9372ZM24.375 41.4184V17.0809L25.3125 16.8934L26.25 17.0809V41.4184L25.4963 41.2684C25.375 41.2441 25.25 41.2441 25.1287 41.2684L24.375 41.4184ZM33.75 42.9184V18.5809L34.5037 18.7309C34.6251 18.7552 34.7499 18.7552 34.8713 18.7309L35.625 18.5809V42.9184L34.6875 43.1059L33.75 42.9184Z" fill="white"/>
</svg>
