<svg width="354" height="212" viewBox="0 0 354 212" fill="none" xmlns="http://www.w3.org/2000/svg">
<rect x="0.5" y="0.5" width="353" height="211" rx="9.5" stroke="white" stroke-linecap="square" stroke-dasharray="8 8"/>
<path fill-rule="evenodd" clip-rule="evenodd" d="M157 66C157 64.6739 157.527 63.4021 158.464 62.4645C159.402 61.5268 160.674 61 162 61H175.333C176.659 61 177.931 61.5268 178.869 62.4645C179.807 63.4021 180.333 64.6739 180.333 66H185.333C186.659 66 187.931 66.5268 188.869 67.4645C189.807 68.4021 190.333 69.6739 190.333 71V116C190.333 117.326 189.807 118.598 188.869 119.536C187.931 120.473 186.659 121 185.333 121H152C150.674 121 149.402 120.473 148.464 119.536C147.527 118.598 147 117.326 147 116V71C147 69.6739 147.527 68.4021 148.464 67.4645C149.402 66.5268 150.674 66 152 66H157ZM162 64.3333C161.558 64.3333 161.134 64.5089 160.821 64.8215C160.509 65.134 160.333 65.558 160.333 66V69.3333C160.333 69.7754 160.509 70.1993 160.821 70.5118C161.134 70.8244 161.558 71 162 71H175.333C175.775 71 176.199 70.8244 176.512 70.5118C176.824 70.1993 177 69.7754 177 69.3333V66C177 65.558 176.824 65.134 176.512 64.8215C176.199 64.5089 175.775 64.3333 175.333 64.3333H162ZM160.333 81V86H155.333V89.3333H160.333V94.3333H163.667V89.3333H168.667V86H163.667V81H160.333ZM157 99.3333C156.558 99.3333 156.134 99.5089 155.821 99.8215C155.509 100.134 155.333 100.558 155.333 101C155.333 101.442 155.509 101.866 155.821 102.179C156.134 102.491 156.558 102.667 157 102.667H180.333C180.775 102.667 181.199 102.491 181.512 102.179C181.824 101.866 182 101.442 182 101C182 100.558 181.824 100.134 181.512 99.8215C181.199 99.5089 180.775 99.3333 180.333 99.3333H157ZM155.333 109.333C155.333 108.891 155.509 108.467 155.821 108.155C156.134 107.842 156.558 107.667 157 107.667H180.333C180.775 107.667 181.199 107.842 181.512 108.155C181.824 108.467 182 108.891 182 109.333C182 109.775 181.824 110.199 181.512 110.512C181.199 110.824 180.775 111 180.333 111H157C156.558 111 156.134 110.824 155.821 110.512C155.509 110.199 155.333 109.775 155.333 109.333Z" fill="white"/>
<path d="M197 81C197 79.6739 197.527 78.4021 198.464 77.4645C199.402 76.5268 200.674 76 202 76C203.326 76 204.598 76.5268 205.536 77.4645C206.473 78.4021 207 79.6739 207 81V86H197V81ZM197 114.333V89.3333H207V114.333L202 121L197 114.333Z" fill="white"/>
<path d="M111.324 146.242V152.416C111.324 153.284 111.534 153.928 111.954 154.348C112.383 154.768 112.976 154.978 113.732 154.978C114.479 154.978 115.062 154.768 115.482 154.348C115.911 153.928 116.126 153.284 116.126 152.416V146.242H117.4V152.402C117.4 153.214 117.237 153.9 116.91 154.46C116.583 155.011 116.14 155.421 115.58 155.692C115.029 155.963 114.409 156.098 113.718 156.098C113.027 156.098 112.402 155.963 111.842 155.692C111.291 155.421 110.853 155.011 110.526 154.46C110.209 153.9 110.05 153.214 110.05 152.402V146.242H111.324ZM120.799 149.742C121.051 149.303 121.425 148.939 121.919 148.65C122.423 148.351 123.007 148.202 123.669 148.202C124.351 148.202 124.967 148.365 125.517 148.692C126.077 149.019 126.516 149.481 126.833 150.078C127.151 150.666 127.309 151.352 127.309 152.136C127.309 152.911 127.151 153.601 126.833 154.208C126.516 154.815 126.077 155.286 125.517 155.622C124.967 155.958 124.351 156.126 123.669 156.126C123.016 156.126 122.437 155.981 121.933 155.692C121.439 155.393 121.061 155.025 120.799 154.586V159.64H119.525V148.328H120.799V149.742ZM126.007 152.136C126.007 151.557 125.891 151.053 125.657 150.624C125.424 150.195 125.107 149.868 124.705 149.644C124.313 149.42 123.879 149.308 123.403 149.308C122.937 149.308 122.503 149.425 122.101 149.658C121.709 149.882 121.392 150.213 121.149 150.652C120.916 151.081 120.799 151.581 120.799 152.15C120.799 152.729 120.916 153.237 121.149 153.676C121.392 154.105 121.709 154.437 122.101 154.67C122.503 154.894 122.937 155.006 123.403 155.006C123.879 155.006 124.313 154.894 124.705 154.67C125.107 154.437 125.424 154.105 125.657 153.676C125.891 153.237 126.007 152.724 126.007 152.136ZM130.26 145.64V156H128.986V145.64H130.26ZM135.778 156.126C135.059 156.126 134.406 155.963 133.818 155.636C133.239 155.309 132.782 154.847 132.446 154.25C132.119 153.643 131.956 152.943 131.956 152.15C131.956 151.366 132.124 150.675 132.46 150.078C132.805 149.471 133.272 149.009 133.86 148.692C134.448 148.365 135.106 148.202 135.834 148.202C136.562 148.202 137.22 148.365 137.808 148.692C138.396 149.009 138.858 149.467 139.194 150.064C139.539 150.661 139.712 151.357 139.712 152.15C139.712 152.943 139.534 153.643 139.18 154.25C138.834 154.847 138.363 155.309 137.766 155.636C137.168 155.963 136.506 156.126 135.778 156.126ZM135.778 155.006C136.235 155.006 136.664 154.899 137.066 154.684C137.467 154.469 137.789 154.147 138.032 153.718C138.284 153.289 138.41 152.766 138.41 152.15C138.41 151.534 138.288 151.011 138.046 150.582C137.803 150.153 137.486 149.835 137.094 149.63C136.702 149.415 136.277 149.308 135.82 149.308C135.353 149.308 134.924 149.415 134.532 149.63C134.149 149.835 133.841 150.153 133.608 150.582C133.374 151.011 133.258 151.534 133.258 152.15C133.258 152.775 133.37 153.303 133.594 153.732C133.827 154.161 134.135 154.483 134.518 154.698C134.9 154.903 135.32 155.006 135.778 155.006ZM140.911 152.136C140.911 151.352 141.069 150.666 141.387 150.078C141.704 149.481 142.138 149.019 142.689 148.692C143.249 148.365 143.869 148.202 144.551 148.202C145.223 148.202 145.806 148.347 146.301 148.636C146.795 148.925 147.164 149.289 147.407 149.728V148.328H148.695V156H147.407V154.572C147.155 155.02 146.777 155.393 146.273 155.692C145.778 155.981 145.199 156.126 144.537 156.126C143.855 156.126 143.239 155.958 142.689 155.622C142.138 155.286 141.704 154.815 141.387 154.208C141.069 153.601 140.911 152.911 140.911 152.136ZM147.407 152.15C147.407 151.571 147.29 151.067 147.057 150.638C146.823 150.209 146.506 149.882 146.105 149.658C145.713 149.425 145.279 149.308 144.803 149.308C144.327 149.308 143.893 149.42 143.501 149.644C143.109 149.868 142.796 150.195 142.563 150.624C142.329 151.053 142.213 151.557 142.213 152.136C142.213 152.724 142.329 153.237 142.563 153.676C142.796 154.105 143.109 154.437 143.501 154.67C143.893 154.894 144.327 155.006 144.803 155.006C145.279 155.006 145.713 154.894 146.105 154.67C146.506 154.437 146.823 154.105 147.057 153.676C147.29 153.237 147.407 152.729 147.407 152.15ZM150.372 152.136C150.372 151.352 150.53 150.666 150.848 150.078C151.165 149.481 151.599 149.019 152.15 148.692C152.71 148.365 153.335 148.202 154.026 148.202C154.623 148.202 155.178 148.342 155.692 148.622C156.205 148.893 156.597 149.252 156.868 149.7V145.64H158.156V156H156.868V154.558C156.616 155.015 156.242 155.393 155.748 155.692C155.253 155.981 154.674 156.126 154.012 156.126C153.33 156.126 152.71 155.958 152.15 155.622C151.599 155.286 151.165 154.815 150.848 154.208C150.53 153.601 150.372 152.911 150.372 152.136ZM156.868 152.15C156.868 151.571 156.751 151.067 156.518 150.638C156.284 150.209 155.967 149.882 155.566 149.658C155.174 149.425 154.74 149.308 154.264 149.308C153.788 149.308 153.354 149.42 152.962 149.644C152.57 149.868 152.257 150.195 152.024 150.624C151.79 151.053 151.674 151.557 151.674 152.136C151.674 152.724 151.79 153.237 152.024 153.676C152.257 154.105 152.57 154.437 152.962 154.67C153.354 154.894 153.788 155.006 154.264 155.006C154.74 155.006 155.174 154.894 155.566 154.67C155.967 154.437 156.284 154.105 156.518 153.676C156.751 153.237 156.868 152.729 156.868 152.15ZM170.565 149.098C170.565 149.91 170.285 150.587 169.725 151.128C169.174 151.66 168.33 151.926 167.191 151.926H165.315V156H164.041V146.242H167.191C168.292 146.242 169.128 146.508 169.697 147.04C170.276 147.572 170.565 148.258 170.565 149.098ZM167.191 150.876C167.9 150.876 168.423 150.722 168.759 150.414C169.095 150.106 169.263 149.667 169.263 149.098C169.263 147.894 168.572 147.292 167.191 147.292H165.315V150.876H167.191ZM173.422 149.574C173.646 149.135 173.964 148.795 174.374 148.552C174.794 148.309 175.303 148.188 175.9 148.188V149.504H175.564C174.136 149.504 173.422 150.279 173.422 151.828V156H172.148V148.328H173.422V149.574ZM184.371 151.87C184.371 152.113 184.357 152.369 184.329 152.64H178.197C178.244 153.396 178.5 153.989 178.967 154.418C179.443 154.838 180.017 155.048 180.689 155.048C181.24 155.048 181.697 154.922 182.061 154.67C182.434 154.409 182.696 154.063 182.845 153.634H184.217C184.012 154.371 183.601 154.973 182.985 155.44C182.369 155.897 181.604 156.126 180.689 156.126C179.961 156.126 179.308 155.963 178.729 155.636C178.16 155.309 177.712 154.847 177.385 154.25C177.058 153.643 176.895 152.943 176.895 152.15C176.895 151.357 177.054 150.661 177.371 150.064C177.688 149.467 178.132 149.009 178.701 148.692C179.28 148.365 179.942 148.202 180.689 148.202C181.417 148.202 182.061 148.361 182.621 148.678C183.181 148.995 183.61 149.434 183.909 149.994C184.217 150.545 184.371 151.17 184.371 151.87ZM183.055 151.604C183.055 151.119 182.948 150.703 182.733 150.358C182.518 150.003 182.224 149.737 181.851 149.56C181.487 149.373 181.081 149.28 180.633 149.28C179.989 149.28 179.438 149.485 178.981 149.896C178.533 150.307 178.276 150.876 178.211 151.604H183.055ZM188.769 156.126C188.181 156.126 187.653 156.028 187.187 155.832C186.72 155.627 186.351 155.347 186.081 154.992C185.81 154.628 185.661 154.213 185.633 153.746H186.949C186.986 154.129 187.163 154.441 187.481 154.684C187.807 154.927 188.232 155.048 188.755 155.048C189.24 155.048 189.623 154.941 189.903 154.726C190.183 154.511 190.323 154.241 190.323 153.914C190.323 153.578 190.173 153.331 189.875 153.172C189.576 153.004 189.114 152.841 188.489 152.682C187.919 152.533 187.453 152.383 187.089 152.234C186.734 152.075 186.426 151.847 186.165 151.548C185.913 151.24 185.787 150.839 185.787 150.344C185.787 149.952 185.903 149.593 186.137 149.266C186.37 148.939 186.701 148.683 187.131 148.496C187.56 148.3 188.05 148.202 188.601 148.202C189.45 148.202 190.136 148.417 190.659 148.846C191.181 149.275 191.461 149.863 191.499 150.61H190.225C190.197 150.209 190.033 149.887 189.735 149.644C189.445 149.401 189.053 149.28 188.559 149.28C188.101 149.28 187.737 149.378 187.467 149.574C187.196 149.77 187.061 150.027 187.061 150.344C187.061 150.596 187.14 150.806 187.299 150.974C187.467 151.133 187.672 151.263 187.915 151.366C188.167 151.459 188.512 151.567 188.951 151.688C189.501 151.837 189.949 151.987 190.295 152.136C190.64 152.276 190.934 152.491 191.177 152.78C191.429 153.069 191.559 153.447 191.569 153.914C191.569 154.334 191.452 154.712 191.219 155.048C190.985 155.384 190.654 155.65 190.225 155.846C189.805 156.033 189.319 156.126 188.769 156.126ZM192.891 152.15C192.891 151.357 193.05 150.666 193.367 150.078C193.684 149.481 194.123 149.019 194.683 148.692C195.252 148.365 195.901 148.202 196.629 148.202C197.572 148.202 198.346 148.431 198.953 148.888C199.569 149.345 199.975 149.98 200.171 150.792H198.799C198.668 150.325 198.412 149.957 198.029 149.686C197.656 149.415 197.189 149.28 196.629 149.28C195.901 149.28 195.313 149.532 194.865 150.036C194.417 150.531 194.193 151.235 194.193 152.15C194.193 153.074 194.417 153.788 194.865 154.292C195.313 154.796 195.901 155.048 196.629 155.048C197.189 155.048 197.656 154.917 198.029 154.656C198.402 154.395 198.659 154.021 198.799 153.536H200.171C199.966 154.32 199.555 154.95 198.939 155.426C198.323 155.893 197.553 156.126 196.629 156.126C195.901 156.126 195.252 155.963 194.683 155.636C194.123 155.309 193.684 154.847 193.367 154.25C193.05 153.653 192.891 152.953 192.891 152.15ZM203.145 149.574C203.369 149.135 203.686 148.795 204.097 148.552C204.517 148.309 205.026 148.188 205.623 148.188V149.504H205.287C203.859 149.504 203.145 150.279 203.145 151.828V156H201.871V148.328H203.145V149.574ZM207.752 147.082C207.509 147.082 207.304 146.998 207.136 146.83C206.968 146.662 206.884 146.457 206.884 146.214C206.884 145.971 206.968 145.766 207.136 145.598C207.304 145.43 207.509 145.346 207.752 145.346C207.985 145.346 208.181 145.43 208.34 145.598C208.508 145.766 208.592 145.971 208.592 146.214C208.592 146.457 208.508 146.662 208.34 146.83C208.181 146.998 207.985 147.082 207.752 147.082ZM208.368 148.328V156H207.094V148.328H208.368ZM211.813 149.742C212.065 149.303 212.438 148.939 212.933 148.65C213.437 148.351 214.02 148.202 214.683 148.202C215.364 148.202 215.98 148.365 216.531 148.692C217.091 149.019 217.53 149.481 217.847 150.078C218.164 150.666 218.323 151.352 218.323 152.136C218.323 152.911 218.164 153.601 217.847 154.208C217.53 154.815 217.091 155.286 216.531 155.622C215.98 155.958 215.364 156.126 214.683 156.126C214.03 156.126 213.451 155.981 212.947 155.692C212.452 155.393 212.074 155.025 211.813 154.586V159.64H210.539V148.328H211.813V149.742ZM217.021 152.136C217.021 151.557 216.904 151.053 216.671 150.624C216.438 150.195 216.12 149.868 215.719 149.644C215.327 149.42 214.893 149.308 214.417 149.308C213.95 149.308 213.516 149.425 213.115 149.658C212.723 149.882 212.406 150.213 212.163 150.652C211.93 151.081 211.813 151.581 211.813 152.15C211.813 152.729 211.93 153.237 212.163 153.676C212.406 154.105 212.723 154.437 213.115 154.67C213.516 154.894 213.95 155.006 214.417 155.006C214.893 155.006 215.327 154.894 215.719 154.67C216.12 154.437 216.438 154.105 216.671 153.676C216.904 153.237 217.021 152.724 217.021 152.136ZM221.554 149.378V153.9C221.554 154.273 221.633 154.539 221.792 154.698C221.951 154.847 222.226 154.922 222.618 154.922H223.556V156H222.408C221.699 156 221.167 155.837 220.812 155.51C220.457 155.183 220.28 154.647 220.28 153.9V149.378H219.286V148.328H220.28V146.396H221.554V148.328H223.556V149.378H221.554ZM225.757 147.082C225.515 147.082 225.309 146.998 225.141 146.83C224.973 146.662 224.889 146.457 224.889 146.214C224.889 145.971 224.973 145.766 225.141 145.598C225.309 145.43 225.515 145.346 225.757 145.346C225.991 145.346 226.187 145.43 226.345 145.598C226.513 145.766 226.597 145.971 226.597 146.214C226.597 146.457 226.513 146.662 226.345 146.83C226.187 146.998 225.991 147.082 225.757 147.082ZM226.373 148.328V156H225.099V148.328H226.373ZM231.891 156.126C231.172 156.126 230.519 155.963 229.931 155.636C229.352 155.309 228.895 154.847 228.559 154.25C228.232 153.643 228.069 152.943 228.069 152.15C228.069 151.366 228.237 150.675 228.573 150.078C228.918 149.471 229.385 149.009 229.973 148.692C230.561 148.365 231.219 148.202 231.947 148.202C232.675 148.202 233.333 148.365 233.921 148.692C234.509 149.009 234.971 149.467 235.307 150.064C235.652 150.661 235.825 151.357 235.825 152.15C235.825 152.943 235.647 153.643 235.293 154.25C234.947 154.847 234.476 155.309 233.879 155.636C233.281 155.963 232.619 156.126 231.891 156.126ZM231.891 155.006C232.348 155.006 232.777 154.899 233.179 154.684C233.58 154.469 233.902 154.147 234.145 153.718C234.397 153.289 234.523 152.766 234.523 152.15C234.523 151.534 234.401 151.011 234.159 150.582C233.916 150.153 233.599 149.835 233.207 149.63C232.815 149.415 232.39 149.308 231.933 149.308C231.466 149.308 231.037 149.415 230.645 149.63C230.262 149.835 229.954 150.153 229.721 150.582C229.487 151.011 229.371 151.534 229.371 152.15C229.371 152.775 229.483 153.303 229.707 153.732C229.94 154.161 230.248 154.483 230.631 154.698C231.013 154.903 231.433 155.006 231.891 155.006ZM241.238 148.188C242.171 148.188 242.927 148.473 243.506 149.042C244.085 149.602 244.374 150.414 244.374 151.478V156H243.114V151.66C243.114 150.895 242.923 150.311 242.54 149.91C242.157 149.499 241.635 149.294 240.972 149.294C240.3 149.294 239.763 149.504 239.362 149.924C238.97 150.344 238.774 150.955 238.774 151.758V156H237.5V148.328H238.774V149.42C239.026 149.028 239.367 148.725 239.796 148.51C240.235 148.295 240.715 148.188 241.238 148.188Z" fill="white"/>
</svg>
